<svg xmlns="http://www.w3.org/2000/svg" xmlns:xlink="http://www.w3.org/1999/xlink">

<symbol id="dribbble" fill-rule="evenodd" clip-rule="evenodd" stroke-linejoin="round" stroke-miterlimit="1.414"><path d="M8 16c-4.41 0-8-3.59-8-8s3.59-8 8-8 8 3.59 8 8-3.59 8-8 8zm6.747-6.905c-.234-.074-2.115-.635-4.257-.292.894 2.456 1.258 4.456 1.328 4.872 1.533-1.037 2.624-2.68 2.93-4.58zM10.67 14.3c-.102-.6-.5-2.688-1.46-5.18l-.044.014C5.312 10.477 3.93 13.15 3.806 13.4c1.158.905 2.614 1.444 4.194 1.444.947 0 1.85-.194 2.67-.543zm-7.747-1.72c.155-.266 2.03-3.37 5.555-4.51.09-.03.18-.056.27-.08-.173-.39-.36-.778-.555-1.16-3.413 1.02-6.723.977-7.023.97l-.003.208c0 1.755.665 3.358 1.756 4.57zM1.31 6.61c.307.005 3.122.017 6.318-.832-1.132-2.012-2.353-3.705-2.533-3.952-1.912.902-3.34 2.664-3.784 4.785zM6.4 1.368c.188.253 1.43 1.943 2.548 4 2.43-.91 3.46-2.293 3.582-2.468C11.323 1.827 9.736 1.176 8 1.176c-.55 0-1.087.066-1.6.19zm6.89 2.322c-.145.194-1.29 1.662-3.816 2.694.16.325.31.656.453.99.05.117.1.235.147.352 2.274-.286 4.533.172 4.758.22-.015-1.613-.59-3.094-1.543-4.257z"/></symbol>

<!--<symbol id="facebook" fill-rule="evenodd" clip-rule="evenodd" stroke-linejoin="round" stroke-miterlimit="1.414"><path d="M15.117 0H.883C.395 0 0 .395 0 .883v14.234c0 .488.395.883.883.883h7.663V9.804H6.46V7.39h2.086V5.607c0-2.066 1.262-3.19 3.106-3.19.883 0 1.642.064 1.863.094v2.16h-1.28c-1 0-1.195.48-1.195 1.18v1.54h2.39l-.31 2.42h-2.08V16h4.077c.488 0 .883-.395.883-.883V.883C16 .395 15.605 0 15.117 0" fill-rule="nonzero"/></symbol>-->
<symbol id="facebook" fill-rule="evenodd" clip-rule="evenodd" stroke-linejoin="round" stroke-miterlimit="1.414">
    <g>
	<linearGradient id="SVGID_1_" gradientUnits="userSpaceOnUse" x1="9.9929" y1="9.9929" x2="40.6152" y2="40.6152">
		<stop  offset="0" style="stop-color:#2AA4F4"/>
		<stop  offset="1" style="stop-color:#007AD9"/>
	</linearGradient>
	<path style="fill:url(#SVGID_1_);" d="M24,4C12.954,4,4,12.954,4,24s8.954,20,20,20s20-8.954,20-20S35.046,4,24,4z"/>
	<path style="fill:#FFFFFF;" d="M26.707,29.301h5.176l0.813-5.258h-5.989v-2.874c0-2.184,0.714-4.121,2.757-4.121h3.283V12.46
		c-0.577-0.078-1.797-0.248-4.102-0.248c-4.814,0-7.636,2.542-7.636,8.334v3.498H16.06v5.258h4.948v14.452
		C21.988,43.9,22.981,44,24,44c0.921,0,1.82-0.084,2.707-0.204V29.301z"/>
    </g>
</symbol>

<symbol id="flickr" fill-rule="evenodd" clip-rule="evenodd" stroke-linejoin="round" stroke-miterlimit="1.414"><path d="M0 8c0 2.05 1.662 3.71 3.71 3.71 2.05 0 3.713-1.66 3.713-3.71S5.76 4.29 3.71 4.29C1.663 4.29 0 5.95 0 8zm8.577 0c0 2.05 1.662 3.71 3.712 3.71C14.33 11.71 16 10.05 16 8s-1.662-3.71-3.71-3.71c-2.05 0-3.713 1.66-3.713 3.71z"/></symbol>

<symbol id="github" fill-rule="evenodd" clip-rule="evenodd" stroke-linejoin="round" stroke-miterlimit="1.414"><path d="M8 0C3.58 0 0 3.582 0 8c0 3.535 2.292 6.533 5.47 7.59.4.075.547-.172.547-.385 0-.19-.007-.693-.01-1.36-2.226.483-2.695-1.073-2.695-1.073-.364-.924-.89-1.17-.89-1.17-.725-.496.056-.486.056-.486.803.056 1.225.824 1.225.824.714 1.223 1.873.87 2.33.665.072-.517.278-.87.507-1.07-1.777-.2-3.644-.888-3.644-3.953 0-.873.31-1.587.823-2.147-.09-.202-.36-1.015.07-2.117 0 0 .67-.215 2.2.82.64-.178 1.32-.266 2-.27.68.004 1.36.092 2 .27 1.52-1.035 2.19-.82 2.19-.82.43 1.102.16 1.915.08 2.117.51.56.82 1.274.82 2.147 0 3.073-1.87 3.75-3.65 3.947.28.24.54.73.54 1.48 0 1.07-.01 1.93-.01 2.19 0 .21.14.46.55.38C13.71 14.53 16 11.53 16 8c0-4.418-3.582-8-8-8"/></symbol>

<symbol id="googleplus" fill-rule="evenodd" clip-rule="evenodd" stroke-linejoin="round" stroke-miterlimit="1.414"><path d="M5.09 7.273v1.745h2.89c-.116.75-.873 2.197-2.887 2.197-1.737 0-3.155-1.44-3.155-3.215S3.353 4.785 5.09 4.785c.99 0 1.652.422 2.03.786l1.382-1.33c-.887-.83-2.037-1.33-3.41-1.33C2.275 2.91 0 5.19 0 8s2.276 5.09 5.09 5.09c2.94 0 4.888-2.065 4.888-4.974 0-.334-.036-.59-.08-.843H5.09zm10.91 0h-1.455V5.818H13.09v1.455h-1.454v1.454h1.455v1.455h1.46V8.727H16"/></symbol>

<!--<symbol id="instagram" fill-rule="evenodd" clip-rule="evenodd" stroke-linejoin="round" stroke-miterlimit="1.414"><path d="M8 0C5.827 0 5.555.01 4.702.048 3.85.088 3.27.222 2.76.42c-.526.204-.973.478-1.417.923-.445.444-.72.89-.923 1.417-.198.51-.333 1.09-.372 1.942C.008 5.555 0 5.827 0 8s.01 2.445.048 3.298c.04.852.174 1.433.372 1.942.204.526.478.973.923 1.417.444.445.89.72 1.417.923.51.198 1.09.333 1.942.372.853.04 1.125.048 3.298.048s2.445-.01 3.298-.048c.852-.04 1.433-.174 1.942-.372.526-.204.973-.478 1.417-.923.445-.444.72-.89.923-1.417.198-.51.333-1.09.372-1.942.04-.853.048-1.125.048-3.298s-.01-2.445-.048-3.298c-.04-.852-.174-1.433-.372-1.942-.204-.526-.478-.973-.923-1.417-.444-.445-.89-.72-1.417-.923-.51-.198-1.09-.333-1.942-.372C10.445.008 10.173 0 8 0zm0 1.44c2.136 0 2.39.01 3.233.048.78.036 1.203.166 1.485.276.374.145.64.318.92.598.28.28.453.546.598.92.11.282.24.705.276 1.485.038.844.047 1.097.047 3.233s-.01 2.39-.05 3.233c-.04.78-.17 1.203-.28 1.485-.15.374-.32.64-.6.92-.28.28-.55.453-.92.598-.28.11-.71.24-1.49.276-.85.038-1.1.047-3.24.047s-2.39-.01-3.24-.05c-.78-.04-1.21-.17-1.49-.28-.38-.15-.64-.32-.92-.6-.28-.28-.46-.55-.6-.92-.11-.28-.24-.71-.28-1.49-.03-.84-.04-1.1-.04-3.23s.01-2.39.04-3.24c.04-.78.17-1.21.28-1.49.14-.38.32-.64.6-.92.28-.28.54-.46.92-.6.28-.11.7-.24 1.48-.28.85-.03 1.1-.04 3.24-.04zm0 2.452c-2.27 0-4.108 1.84-4.108 4.108 0 2.27 1.84 4.108 4.108 4.108 2.27 0 4.108-1.84 4.108-4.108 0-2.27-1.84-4.108-4.108-4.108zm0 6.775c-1.473 0-2.667-1.194-2.667-2.667 0-1.473 1.194-2.667 2.667-2.667 1.473 0 2.667 1.194 2.667 2.667 0 1.473-1.194 2.667-2.667 2.667zm5.23-6.937c0 .53-.43.96-.96.96s-.96-.43-.96-.96.43-.96.96-.96.96.43.96.96z"/></symbol>-->
<symbol id="instagram" fill-rule="evenodd" clip-rule="evenodd" stroke-linejoin="round" stroke-miterlimit="1.414">
  <radialGradient id="SVGID_1_" cx="19.3802" cy="42.0351" r="44.8989" gradientUnits="userSpaceOnUse">
	<stop  offset="0" style="stop-color:#FFDD55"/>
	<stop  offset="0.328" style="stop-color:#FF543F"/>
	<stop  offset="0.3484" style="stop-color:#FC5245"/>
	<stop  offset="0.5039" style="stop-color:#E64771"/>
	<stop  offset="0.6433" style="stop-color:#D53E91"/>
	<stop  offset="0.7606" style="stop-color:#CC39A4"/>
	<stop  offset="0.8414" style="stop-color:#C837AB"/>
</radialGradient>
<path style="fill:url(#SVGID_1_);" d="M34.017,41.99l-20,0.019c-4.4,0.004-8.003-3.592-8.008-7.992l-0.019-20
	c-0.004-4.4,3.592-8.003,7.992-8.008l20-0.019c4.4-0.004,8.003,3.592,8.008,7.992l0.019,20
	C42.014,38.383,38.417,41.986,34.017,41.99z"/>
<radialGradient id="SVGID_2_" cx="11.7859" cy="5.5401" r="29.8134" gradientTransform="matrix(1 0 0 0.6663 0 1.849)" gradientUnits="userSpaceOnUse">
	<stop  offset="0" style="stop-color:#4168C9"/>
	<stop  offset="0.9988" style="stop-color:#4168C9;stop-opacity:0"/>
</radialGradient>
<path style="fill:url(#SVGID_2_);" d="M34.017,41.99l-20,0.019c-4.4,0.004-8.003-3.592-8.008-7.992l-0.019-20
	c-0.004-4.4,3.592-8.003,7.992-8.008l20-0.019c4.4-0.004,8.003,3.592,8.008,7.992l0.019,20
	C42.014,38.383,38.417,41.986,34.017,41.99z"/>
<path style="fill:#FFFFFF;" d="M24,31c-3.859,0-7-3.14-7-7s3.141-7,7-7s7,3.14,7,7S27.859,31,24,31z M24,19c-2.757,0-5,2.243-5,5
	s2.243,5,5,5s5-2.243,5-5S26.757,19,24,19z"/>
<circle style="fill:#FFFFFF;" cx="31.5" cy="16.5" r="1.5"/>
<path style="fill:#FFFFFF;" d="M30,37H18c-3.859,0-7-3.14-7-7V18c0-3.86,3.141-7,7-7h12c3.859,0,7,3.14,7,7v12
	C37,33.86,33.859,37,30,37z M18,13c-2.757,0-5,2.243-5,5v12c0,2.757,2.243,5,5,5h12c2.757,0,5-2.243,5-5V18c0-2.757-2.243-5-5-5H18z
	"/>
</symbol>

<symbol id="linkedin" fill-rule="evenodd" clip-rule="evenodd" stroke-linejoin="round" stroke-miterlimit="1.414"><path d="M13.632 13.635h-2.37V9.922c0-.886-.018-2.025-1.234-2.025-1.235 0-1.424.964-1.424 1.96v3.778h-2.37V6H8.51v1.04h.03c.318-.6 1.092-1.233 2.247-1.233 2.4 0 2.845 1.58 2.845 3.637v4.188zM3.558 4.955c-.762 0-1.376-.617-1.376-1.377 0-.758.614-1.375 1.376-1.375.76 0 1.376.617 1.376 1.375 0 .76-.617 1.377-1.376 1.377zm1.188 8.68H2.37V6h2.376v7.635zM14.816 0H1.18C.528 0 0 .516 0 1.153v13.694C0 15.484.528 16 1.18 16h13.635c.652 0 1.185-.516 1.185-1.153V1.153C16 .516 15.467 0 14.815 0z" fill-rule="nonzero"/></symbol>

<symbol id="pinterest" fill-rule="evenodd" clip-rule="evenodd" stroke-linejoin="round" stroke-miterlimit="1.414">
    <linearGradient id="SVGID_1_" gradientUnits="userSpaceOnUse" x1="14.8985147" y1="43.8151436" x2="33.4805145" y2="7.6611409" gradientTransform="matrix(1 0 0 -1 0.108 50.3170013)">
        <stop  offset="0" style="stop-color:#F22543"/>
        <stop  offset="0.4216764" style="stop-color:#EB2239"/>
        <stop  offset="1" style="stop-color:#E52030"/>
    </linearGradient>
    <path fill="url(#SVGID_1_)" d="M44,23.9810009C44.0110016,35.026001,35.0639992,43.9889984,24.0189991,44
        S4.0110002,35.0639992,4,24.0189991C3.9890001,12.974,12.9359999,4.0110002,23.9810009,4
        C35.026001,3.9890001,43.9889984,12.9359999,44,23.9810009z"/>
    <path opacity="0.05" enable-background="new    " d="M37.7729988,22.9680004c0-7.1560001-5.7299995-12.552-13.3299999-12.552
        c-9.7670002,0-14.2150002,6.7919998-14.2150002,13.1040001c0,3.1480007,1.625,7.2519989,4.6370001,8.6549988
        c0.4860001,0.2270012,0.9300003,0.2439995,1.3210001,0.0550003c0.2609997-0.1259995,0.6030006-0.4029999,0.7420006-0.9950008
        l0.5559998-2.2689991c0.1259995-0.5289993,0.0130005-1.0139999-0.3390007-1.4419994
        c-0.6259995-0.7600002-1.2609997-2.3540001-1.2609997-3.9300003c0-3.7229996,2.8139992-7.6800003,8.0299988-7.6800003
        c4.3299999,0,7.3540001,2.9349995,7.3540001,7.1369991c0,4.7270012-2.223999,8.1580009-5.2870007,8.1580009
        c-0.6819992,0-1.289999-0.2740002-1.6679993-0.7520008c-0.3509998-0.4440002-0.4640007-1.0230007-0.3209991-1.6310005
        c0.1959991-0.8260002,0.4650002-1.6940002,0.7240009-2.5340004c0.4939995-1.5979996,0.9599991-3.1070004,0.9599991-4.3549995
        c0-2.282999-1.4190006-3.816-3.5300007-3.816c-2.5900002,0-4.618,2.5720005-4.618,5.855999
        c0,1.4130001,0.3430004,2.5170002,0.5499992,3.0559998c-0.3649998,1.5440006-1.9489994,8.2490005-2.2700005,9.6269989
        c-0.3839998,1.6399994-0.3070002,3.8040009-0.1479998,5.5009995c1.0940008,0.5029984,2.2400007,0.9059982,3.4299994,1.2070007
        c0.7719994-1.2789993,1.9710007-3.4389992,2.4419994-5.2490005c0.132-0.5079994,0.4880009-1.8660011,0.7859993-3.0009995
        c1.0979996,0.7939987,2.585001,1.2910004,4.0760002,1.2910004C32.882,36.4080009,37.7729988,30.6299992,37.7729988,22.9680004z"/>
    <path opacity="0.07" enable-background="new    " d="M37.2729988,22.9680004c0-6.8710003-5.5159988-12.052-12.8299999-12.052
        c-9.4230003,0-13.7150002,6.5330009-13.7150002,12.6040001c0,3.0359993,1.6260004,6.934,4.349,8.2019997
        c0.1269999,0.0599995,0.5159998,0.2409992,0.8920002,0.059c0.2379999-0.1159992,0.3979998-0.3390007,0.474-0.6620007
        l0.5550003-2.2679996c0.0890007-0.3740005,0.0119991-0.7040005-0.2390003-1.0079994
        c-0.809-0.9820004-1.375-2.7290001-1.375-4.2479992c0-3.9650002,2.9899998-8.1800003,8.5299988-8.1800003
        c4.6240005,0,7.8540001,3.1399994,7.8540001,7.637001c0,5.0170002-2.434,8.6580009-5.7870007,8.6580009
        c-0.8349991,0-1.5860004-0.3430004-2.0599995-0.9419994c-0.448-0.566-0.5949993-1.2970009-0.4150009-2.0569992
        c0.2000008-0.842001,0.4710007-1.7180004,0.7329998-2.566c0.4820004-1.5610008,0.9379997-3.0349998,0.9379997-4.2080002
        c0-1.9839993-1.2180004-3.316-3.0300007-3.316c-2.309,0-4.118,2.3530006-4.118,5.3560009
        c0,1.493,0.3990002,2.6049995,0.573,3.0179996c-0.2789993,1.1800003-1.9729996,8.3479977-2.3059998,9.7790012
        c-0.3909998,1.6749992-0.2819996,3.9440002-0.1070004,5.6409988c0.7730007,0.3279991,1.5769997,0.5940018,2.3959999,0.8240013
        c0.7520008-1.2330017,1.993-3.4350014,2.4640007-5.2449989c0.1639996-0.6300011,0.6709995-2.5629997,0.9860001-3.762001
        c1.0139999,1.0089989,2.6809998,1.6780014,4.3600006,1.6780014C32.5970001,35.9080009,37.2729988,30.3449993,37.2729988,22.9680004z
        "/>
        <path fill="#FFFFFF" d="M24.4430008,11.4169998c-8.632,0-13.2150002,5.7950001-13.2150002,12.1030006
        c0,2.9330006,1.5620003,6.5849991,4.0599995,7.7480011c0.3780003,0.177,0.5819998,0.1000004,0.6680002-0.2670002
        c0.0670004-0.2779999,0.4030008-1.6369991,0.5549994-2.2679996c0.0480003-0.2019997,0.0249996-0.375-0.1380005-0.573
        c-0.8269997-1.0030003-1.4879999-2.8470001-1.4879999-4.5650005c0-4.4120007,3.3399992-8.6800003,9.0299997-8.6800003
        c4.9130001,0,8.3529987,3.3479996,8.3529987,8.137001c0,5.4099998-2.7320004,9.1580009-6.2870007,9.1580009
        c-1.9629993,0-3.4330006-1.6229992-2.9619999-3.6149998c0.5650005-2.3770008,1.6569996-4.9419994,1.6569996-6.657999
        c0-1.5349998-0.823-2.8169994-2.5300007-2.8169994c-2.007,0-3.618,2.0750008-3.618,4.8570004
        c0,1.7700005,0.5979996,2.9680004,0.5979996,2.9680004s-1.9820004,8.3819981-2.3449993,9.9419994
        c-0.4020004,1.7220001-0.2460003,4.1409988-0.0709991,5.7229996c0.4510002,0.1769981,0.9020004,0.3540001,1.3689995,0.4990005
        c0.8169994-1.3279991,2.0340004-3.5060005,2.4860001-5.2420006c0.243-0.9370003,1.2469997-4.7550011,1.2469997-4.7550011
        c0.6520004,1.243,2.5569992,2.2970009,4.5830002,2.2970009c6.0320015,0,10.3779984-5.5470009,10.3779984-12.4399986
        C36.7729988,16.3600006,31.382,11.4169998,24.4430008,11.4169998z"/>
</symbol>

<symbol id="rss" fill-rule="evenodd" clip-rule="evenodd" stroke-linejoin="round" stroke-miterlimit="1.414"><path d="M12.8 16C12.8 8.978 7.022 3.2 0 3.2V0c8.777 0 16 7.223 16 16h-3.2zM2.194 11.61c1.21 0 2.195.985 2.195 2.196 0 1.21-.99 2.194-2.2 2.194C.98 16 0 15.017 0 13.806c0-1.21.983-2.195 2.194-2.195zM10.606 16h-3.11c0-4.113-3.383-7.497-7.496-7.497v-3.11c5.818 0 10.606 4.79 10.606 10.607z"/></symbol>

<symbol id="stackoverflow" class="svg-icon" xmlns="http://www.w3.org/2000/svg" fill-rule="evenodd" clip-rule="evenodd" stroke-linejoin="round" stroke-miterlimit="1.414"><path d="M12.658 14.577v-4.27h1.423V16H1.23v-5.693h1.42v4.27h10.006zm-8.583-1.423h7.16V11.73h-7.16v1.424zm.173-3.235l6.987 1.46.3-1.38L4.55 8.54l-.302 1.38zm.906-3.37l6.47 3.02.602-1.3-6.47-3.02-.602 1.29zm1.81-3.19l5.478 4.57.906-1.08L7.87 2.28l-.9 1.078zM10.502 0L9.338.863l4.27 5.735 1.164-.862L10.5 0z"/></symbol>

<symbol id="twitter" fill-rule="evenodd" clip-rule="evenodd" stroke-linejoin="round" stroke-miterlimit="1.414"><path d="M16 3.038c-.59.26-1.22.437-1.885.517.677-.407 1.198-1.05 1.443-1.816-.634.37-1.337.64-2.085.79-.598-.64-1.45-1.04-2.396-1.04-1.812 0-3.282 1.47-3.282 3.28 0 .26.03.51.085.75-2.728-.13-5.147-1.44-6.766-3.42C.83 2.58.67 3.14.67 3.75c0 1.14.58 2.143 1.46 2.732-.538-.017-1.045-.165-1.487-.41v.04c0 1.59 1.13 2.918 2.633 3.22-.276.074-.566.114-.865.114-.21 0-.41-.02-.61-.058.42 1.304 1.63 2.253 3.07 2.28-1.12.88-2.54 1.404-4.07 1.404-.26 0-.52-.015-.78-.045 1.46.93 3.18 1.474 5.04 1.474 6.04 0 9.34-5 9.34-9.33 0-.14 0-.28-.01-.42.64-.46 1.2-1.04 1.64-1.7z" fill-rule="nonzero"/></symbol>

<symbol id="youtube" fill-rule="evenodd" clip-rule="evenodd" stroke-linejoin="round" stroke-miterlimit="1.414"><path d="M0 7.345c0-1.294.16-2.59.16-2.59s.156-1.1.636-1.587c.608-.637 1.408-.617 1.764-.684C3.84 2.36 8 2.324 8 2.324s3.362.004 5.6.166c.314.038.996.04 1.604.678.48.486.636 1.588.636 1.588S16 6.05 16 7.346v1.258c0 1.296-.16 2.59-.16 2.59s-.156 1.102-.636 1.588c-.608.638-1.29.64-1.604.678-2.238.162-5.6.166-5.6.166s-4.16-.037-5.44-.16c-.356-.067-1.156-.047-1.764-.684-.48-.487-.636-1.587-.636-1.587S0 9.9 0 8.605v-1.26zm6.348 2.73V5.58l4.323 2.255-4.32 2.24z"/></symbol>

<symbol id="mastodon" fill-rule="evenodd" clip-rule="evenodd" stroke-linejoin="round" stroke-miterlimit="1.414">
  <path transform="scale(0.07)" d="M211.80734 139.0875c-3.18125 16.36625-28.4925 34.2775-57.5625 37.74875-15.15875 1.80875-30.08375 3.47125-45.99875 2.74125-26.0275-1.1925-46.565-6.2125-46.565-6.2125 0 2.53375.15625 4.94625.46875 7.2025 3.38375 25.68625 25.47 27.225 46.39125 27.9425 21.11625.7225 39.91875-5.20625 39.91875-5.20625l.8675 19.09s-14.77 7.93125-41.08125 9.39c-14.50875.7975-32.52375-.365-53.50625-5.91875C9.23234 213.82 1.40609 165.31125.20859 116.09125c-.365-14.61375-.14-28.39375-.14-39.91875 0-50.33 32.97625-65.0825 32.97625-65.0825C49.67234 3.45375 78.20359.2425 107.86484 0h.72875c29.66125.2425 58.21125 3.45375 74.8375 11.09 0 0 32.975 14.7525 32.975 65.0825 0 0 .41375 37.13375-4.59875 62.915"/>
  <path transform="scale(0.07)" fill="#FFF" d="M177.50984 80.077v60.94125h-24.14375v-59.15c0-12.46875-5.24625-18.7975-15.74-18.7975-11.6025 0-17.4175 7.5075-17.4175 22.3525v32.37625H96.20734V85.42325c0-14.845-5.81625-22.3525-17.41875-22.3525-10.49375 0-15.74 6.32875-15.74 18.7975v59.15H38.90484V80.077c0-12.455 3.17125-22.3525 9.54125-29.675 6.56875-7.3225 15.17125-11.07625 25.85-11.07625 12.355 0 21.71125 4.74875 27.8975 14.2475l6.01375 10.08125 6.015-10.08125c6.185-9.49875 15.54125-14.2475 27.8975-14.2475 10.6775 0 19.28 3.75375 25.85 11.07625 6.36875 7.3225 9.54 17.22 9.54 29.675"/>
</symbol>


</svg>
